# xmcd
#
# Track frame offsets:
#	150
#	14006
#	24741
#	39136
#	53266
#	70893
#	83568
#	96198
#	110217
#	124623
#
# Disc length: 1851 seconds
#
# Revision: 1
# Processed by: cddbd v1.5.2PL0 Copyright (c) Steve Scherf et al.
# Submitted via: audiograbber 1.83.01
#
DISCID=7707390a
DTITLE=George Jones - Too Wild Too Long
DYEAR=1987
DGENRE=Country
TTITLE0=I'm A Survivor
TTITLE1=The Real McCoy
TTITLE2=Too Wild Too Long
TTITLE3=One Hell Of A Song
TTITLE4=The Old Man No One Loves
TTITLE5=The Bird
TTITLE6=I'm A Long Gone Daddy
TTITLE7=New Patches
TTITLE8=Moments Of Brilliance
TTITLE9=The U.S.A. Today
EXTD=
EXTT0=
EXTT1=
EXTT2=
EXTT3=
EXTT4=
EXTT5=
EXTT6=
EXTT7=
EXTT8=
EXTT9=
PLAYORDER=
